<svg width="21" height="21" viewBox="0 0 21 21" fill="none" xmlns="http://www.w3.org/2000/svg">
<g clip-path="url(#clip0_224_4456)">
<path d="M6.125 0H3.5C2.57174 0 1.6815 0.368749 1.02513 1.02513C0.368749 1.6815 0 2.57174 0 3.5L0 6.125C0 7.05326 0.368749 7.9435 1.02513 8.59987C1.6815 9.25625 2.57174 9.625 3.5 9.625H6.125C7.05326 9.625 7.9435 9.25625 8.59987 8.59987C9.25625 7.9435 9.625 7.05326 9.625 6.125V3.5C9.625 2.57174 9.25625 1.6815 8.59987 1.02513C7.9435 0.368749 7.05326 0 6.125 0V0ZM7.875 6.125C7.875 6.58913 7.69063 7.03425 7.36244 7.36244C7.03425 7.69063 6.58913 7.875 6.125 7.875H3.5C3.03587 7.875 2.59075 7.69063 2.26256 7.36244C1.93437 7.03425 1.75 6.58913 1.75 6.125V3.5C1.75 3.03587 1.93437 2.59075 2.26256 2.26256C2.59075 1.93437 3.03587 1.75 3.5 1.75H6.125C6.58913 1.75 7.03425 1.93437 7.36244 2.26256C7.69063 2.59075 7.875 3.03587 7.875 3.5V6.125Z" fill="#231942"/>
<path d="M6.125 11.375H3.5C2.57174 11.375 1.6815 11.7437 1.02513 12.4001C0.368749 13.0565 0 13.9467 0 14.875L0 17.5C0 18.4283 0.368749 19.3185 1.02513 19.9749C1.6815 20.6313 2.57174 21 3.5 21H6.125C7.05326 21 7.9435 20.6313 8.59987 19.9749C9.25625 19.3185 9.625 18.4283 9.625 17.5V14.875C9.625 13.9467 9.25625 13.0565 8.59987 12.4001C7.9435 11.7437 7.05326 11.375 6.125 11.375ZM7.875 17.5C7.875 17.9641 7.69063 18.4093 7.36244 18.7374C7.03425 19.0656 6.58913 19.25 6.125 19.25H3.5C3.03587 19.25 2.59075 19.0656 2.26256 18.7374C1.93437 18.4093 1.75 17.9641 1.75 17.5V14.875C1.75 14.4109 1.93437 13.9658 2.26256 13.6376C2.59075 13.3094 3.03587 13.125 3.5 13.125H6.125C6.58913 13.125 7.03425 13.3094 7.36244 13.6376C7.69063 13.9658 7.875 14.4109 7.875 14.875V17.5Z" fill="#231942"/>
<path d="M19.5065 16.6679L17.5002 18.6717V2.30394L19.5065 4.30769C19.5878 4.38893 19.6843 4.45336 19.7905 4.4973C19.8967 4.54125 20.0105 4.56385 20.1255 4.56381C20.2404 4.56377 20.3542 4.54109 20.4604 4.49707C20.5665 4.45305 20.663 4.38855 20.7442 4.30725C20.8255 4.22596 20.8899 4.12946 20.9338 4.02326C20.9778 3.91706 21.0004 3.80325 21.0003 3.68832C21.0003 3.57339 20.9776 3.45959 20.9336 3.35343C20.8896 3.24726 20.8251 3.1508 20.7438 3.06957L18.4802 0.809439C17.988 0.317862 17.3208 0.041748 16.6252 0.041748C15.9295 0.041748 15.2624 0.317862 14.7702 0.809439L12.5066 3.06957C12.4253 3.1508 12.3608 3.24726 12.3167 3.35343C12.2727 3.45959 12.25 3.57339 12.25 3.68832C12.25 3.80325 12.2726 3.91706 12.3165 4.02326C12.3604 4.12946 12.4249 4.22596 12.5061 4.30725C12.5874 4.38855 12.6838 4.45305 12.79 4.49707C12.8961 4.54109 13.0099 4.56377 13.1249 4.56381C13.2398 4.56385 13.3536 4.54125 13.4598 4.4973C13.566 4.45336 13.6625 4.38893 13.7438 4.30769L15.7502 2.30394V18.6717L13.7438 16.6679C13.6625 16.5867 13.566 16.5223 13.4598 16.4783C13.3536 16.4344 13.2398 16.4118 13.1249 16.4118C13.0099 16.4119 12.8961 16.4346 12.79 16.4786C12.6838 16.5226 12.5874 16.5871 12.5061 16.6684C12.4249 16.7497 12.3604 16.8462 12.3165 16.9524C12.2726 17.0586 12.25 17.1724 12.25 17.2873C12.25 17.4023 12.2727 17.516 12.3167 17.6222C12.3608 17.7284 12.4253 17.8248 12.5066 17.9061L14.7702 20.1662C15.2624 20.6578 15.9295 20.9339 16.6252 20.9339C17.3208 20.9339 17.988 20.6578 18.4802 20.1662L20.7438 17.9061C20.8251 17.8248 20.8896 17.7284 20.9336 17.6222C20.9776 17.516 21.0003 17.4023 21.0003 17.2873C21.0004 17.1724 20.9778 17.0586 20.9338 16.9524C20.8899 16.8462 20.8255 16.7497 20.7442 16.6684C20.663 16.5871 20.5665 16.5226 20.4604 16.4786C20.3542 16.4346 20.2404 16.4119 20.1255 16.4118C20.0105 16.4118 19.8967 16.4344 19.7905 16.4783C19.6843 16.5223 19.5878 16.5867 19.5065 16.6679Z" fill="#231942"/>
</g>
<defs>
<clipPath id="clip0_224_4456">
<rect width="21" height="21" fill="white"/>
</clipPath>
</defs>
</svg>