<svg width="24" height="13" viewBox="0 0 24 13" fill="none" xmlns="http://www.w3.org/2000/svg">
<path d="M22.5919 0.780613C22.383 0.571529 22.1349 0.405666 21.8618 0.292503C21.5887 0.179339 21.296 0.121094 21.0004 0.121094C20.7048 0.121094 20.4121 0.179339 20.1391 0.292503C19.866 0.405666 19.6179 0.571529 19.4089 0.780613L12.5299 7.65811C12.3893 7.79872 12.1986 7.8777 11.9997 7.8777C11.8008 7.8777 11.6101 7.79872 11.4694 7.65811L4.59193 0.780613C4.17004 0.358521 3.59775 0.121313 3.00096 0.121172C2.40418 0.121032 1.83178 0.35797 1.40968 0.779863C0.987592 1.20176 0.750385 1.77405 0.750244 2.37083C0.750104 2.96762 0.987042 3.54002 1.40893 3.96211L8.28793 10.8411C8.77545 11.3287 9.35423 11.7154 9.99122 11.9793C10.6282 12.2432 11.3109 12.379 12.0004 12.379C12.6899 12.379 13.3727 12.2432 14.0096 11.9793C14.6466 11.7154 15.2254 11.3287 15.7129 10.8411L22.5919 3.96211C23.0137 3.54018 23.2507 2.96798 23.2507 2.37136C23.2507 1.77474 23.0137 1.20255 22.5919 0.780613Z" fill="#374957"/>
</svg>