<svg width="199" height="198" viewBox="0 0 199 198" fill="none" xmlns="http://www.w3.org/2000/svg">
<g id="Estrellas">
<path id="Star 5" d="M9.85835 134.785C9.68119 132.919 11.9958 131.916 13.2362 133.322C13.7909 133.951 14.6874 134.151 15.4567 133.817C17.177 133.072 18.8459 134.964 17.8922 136.578C17.4657 137.3 17.5525 138.214 18.1072 138.843C19.3476 140.248 18.0644 142.42 16.2346 142.012C15.4163 141.829 14.5734 142.194 14.1469 142.916C13.1932 144.53 10.7313 143.981 10.5541 142.115C10.4749 141.28 9.86718 140.591 9.04887 140.409C7.21908 140 6.98071 137.489 8.701 136.744C9.47034 136.411 9.93758 135.62 9.85835 134.785Z" fill="#FFBE21"/>
<path id="Star 36" d="M121.893 9.95912C121.715 8.09273 124.03 7.09001 125.27 8.49582C125.825 9.12452 126.722 9.32453 127.491 8.99125C129.211 8.24601 130.88 10.1375 129.926 11.7516C129.5 12.4734 129.587 13.3878 130.141 14.0165C131.382 15.4223 130.099 17.594 128.269 17.1858C127.45 17.0032 126.608 17.3683 126.181 18.0902C125.227 19.7042 122.765 19.1549 122.588 17.2885C122.509 16.4539 121.901 15.7651 121.083 15.5826C119.253 15.1743 119.015 12.6631 120.735 11.9178C121.505 11.5846 121.972 10.7938 121.893 9.95912Z" fill="#FFBE21"/>
<path id="Star 63" d="M82.4838 35.2931C82.3067 33.4267 84.6213 32.424 85.8617 33.8298C86.4164 34.4585 87.3128 34.6585 88.0822 34.3252C89.8025 33.58 91.4714 35.4715 90.5177 37.0856C90.0912 37.8074 90.178 38.7218 90.7327 39.3505C91.973 40.7563 90.6898 42.928 88.86 42.5198C88.0417 42.3372 87.1989 42.7023 86.7724 43.4241C85.8187 45.0382 83.3567 44.4889 83.1796 42.6225C83.1003 41.7879 82.4927 41.0991 81.6744 40.9165C79.8446 40.5083 79.6062 37.9971 81.3265 37.2518C82.0958 36.9186 82.5631 36.1278 82.4838 35.2931Z" fill="#FFBE21"/>
<path id="Star 13" d="M171.978 41.3703C173.215 39.9618 175.532 40.9594 175.359 42.8261C175.282 43.661 175.751 44.4507 176.521 44.7823C178.243 45.5238 178.01 48.0355 176.181 48.4478C175.363 48.6322 174.757 49.3222 174.68 50.1571C174.506 52.0239 172.046 52.5786 171.088 50.9666C170.66 50.2457 169.817 49.8825 168.999 50.0669C167.17 50.4791 165.882 48.3103 167.119 46.9017C167.673 46.2718 167.757 45.3572 167.329 44.6363C166.372 43.0244 168.037 41.1292 169.759 41.8706C170.529 42.2022 171.425 42.0002 171.978 41.3703Z" fill="#FFBE21"/>
<path id="Star 41" d="M82.4634 112.648C83.7006 111.239 86.0175 112.237 85.8444 114.103C85.767 114.938 86.236 115.728 87.0061 116.06C88.728 116.801 88.4952 119.313 86.6663 119.725C85.8484 119.91 85.2422 120.6 85.1649 121.434C84.9918 123.301 82.5311 123.856 81.5738 122.244C81.1457 121.523 80.3021 121.16 79.4842 121.344C77.6553 121.756 76.3673 119.588 77.6046 118.179C78.1579 117.549 78.2427 116.635 77.8146 115.914C76.8573 114.302 78.522 112.407 80.244 113.148C81.014 113.48 81.91 113.278 82.4634 112.648Z" fill="#FFBE21"/>
<path id="Star 28" d="M89.4038 67.6086C90.641 66.2 92.9579 67.1976 92.7849 69.0644C92.7075 69.8993 93.1764 70.689 93.9465 71.0206C95.6685 71.762 95.4356 74.2738 93.6067 74.6861C92.7888 74.8704 92.1827 75.5605 92.1053 76.3954C91.9322 78.2621 89.4715 78.8169 88.5142 77.2049C88.0861 76.484 87.2425 76.1208 86.4246 76.3051C84.5957 76.7174 83.3077 74.5485 84.545 73.14C85.0983 72.5101 85.1831 71.5955 84.755 70.8746C83.7977 69.2626 85.4624 67.3675 87.1844 68.1089C87.9545 68.4405 88.8505 68.2385 89.4038 67.6086Z" fill="#FFBE21"/>
<path id="Star 14" d="M156.203 128.059C157.44 126.65 159.757 127.648 159.584 129.515C159.506 130.349 159.975 131.139 160.745 131.471C162.467 132.212 162.234 134.724 160.406 135.136C159.588 135.321 158.982 136.011 158.904 136.846C158.731 138.712 156.27 139.267 155.313 137.655C154.885 136.934 154.041 136.571 153.223 136.755C151.395 137.168 150.107 134.999 151.344 133.59C151.897 132.96 151.982 132.046 151.554 131.325C150.597 129.713 152.261 127.818 153.983 128.559C154.753 128.891 155.649 128.689 156.203 128.059Z" fill="#FFBE21"/>
<path id="Star 42" d="M67.4355 171.749C68.6728 170.341 70.9896 171.338 70.8166 173.205C70.7392 174.04 71.2082 174.83 71.9783 175.161C73.7002 175.903 73.4674 178.414 71.6385 178.827C70.8206 179.011 70.2144 179.701 70.137 180.536C69.964 182.403 67.5032 182.957 66.546 181.346C66.1179 180.625 65.2742 180.261 64.4563 180.446C62.6275 180.858 61.3395 178.689 62.5767 177.281C63.13 176.651 63.2148 175.736 62.7867 175.015C61.8295 173.403 63.4942 171.508 65.2161 172.25C65.9862 172.581 66.8822 172.379 67.4355 171.749Z" fill="#FFBE21"/>
<path id="Star 55" d="M145.128 179.853C146.365 178.444 148.682 179.442 148.509 181.309C148.432 182.143 148.901 182.933 149.671 183.265C151.393 184.006 151.16 186.518 149.331 186.93C148.513 187.115 147.907 187.805 147.829 188.64C147.656 190.506 145.196 191.061 144.238 189.449C143.81 188.728 142.967 188.365 142.149 188.549C140.32 188.962 139.032 186.793 140.269 185.384C140.822 184.754 140.907 183.84 140.479 183.119C139.522 181.507 141.187 179.612 142.909 180.353C143.679 180.685 144.575 180.483 145.128 179.853Z" fill="#FFBE21"/>
<path id="Star 32" d="M144.002 79.9826C145.239 78.5741 147.556 79.5717 147.383 81.4384C147.306 82.2733 147.775 83.063 148.545 83.3946C150.267 84.1361 150.034 86.6478 148.205 87.0601C147.387 87.2445 146.781 87.9345 146.703 88.7694C146.53 90.6362 144.07 91.1909 143.112 89.5789C142.684 88.858 141.841 88.4948 141.023 88.6792C139.194 89.0915 137.906 86.9226 139.143 85.514C139.696 84.8841 139.781 83.9695 139.353 83.2486C138.396 81.6367 140.061 79.7415 141.783 80.4829C142.553 80.8145 143.449 80.6125 144.002 79.9826Z" fill="#FFBE21"/>
<path id="Star 43" d="M83.7622 137.97C84.9994 136.561 87.3163 137.559 87.1432 139.426C87.0659 140.261 87.5348 141.05 88.3049 141.382C90.0269 142.123 89.794 144.635 87.9651 145.047C87.1472 145.232 86.5411 145.922 86.4637 146.757C86.2906 148.623 83.8299 149.178 82.8726 147.566C82.4445 146.845 81.6009 146.482 80.783 146.666C78.9541 147.079 77.6661 144.91 78.9034 143.501C79.4567 142.871 79.5415 141.957 79.1134 141.236C78.1561 139.624 79.8208 137.729 81.5428 138.47C82.3129 138.802 83.2089 138.6 83.7622 137.97Z" fill="#FFBE21"/>
<path id="Star 56" d="M129.364 124.458C130.601 123.05 132.918 124.047 132.745 125.914C132.668 126.749 133.137 127.539 133.907 127.87C135.629 128.612 135.396 131.123 133.567 131.536C132.749 131.72 132.143 132.41 132.066 133.245C131.893 135.112 129.432 135.666 128.475 134.055C128.047 133.334 127.203 132.97 126.385 133.155C124.556 133.567 123.268 131.398 124.505 129.99C125.059 129.36 125.144 128.445 124.715 127.724C123.758 126.112 125.423 124.217 127.145 124.959C127.915 125.29 128.811 125.088 129.364 124.458Z" fill="#FFBE21"/>
<path id="Star 15" d="M29.3343 23.2092C29.4324 21.337 31.869 20.6841 32.8901 22.2564C33.3467 22.9596 34.2042 23.2887 35.0141 23.0717C36.825 22.5865 38.1988 24.7021 37.019 26.159C36.4913 26.8106 36.4433 27.7279 36.8999 28.431C37.921 30.0033 36.3335 31.9637 34.5833 31.2918C33.8005 30.9914 32.9133 31.2291 32.3857 31.8807C31.2058 33.3377 28.8509 32.4337 28.949 30.5615C28.9929 29.7242 28.4926 28.9539 27.7099 28.6534C25.9596 27.9815 26.0917 25.4625 27.9026 24.9773C28.7124 24.7603 29.2904 24.0465 29.3343 23.2092Z" fill="#FFBE21"/>
<path id="Star 64" d="M29.5189 74.4406C29.617 72.5684 32.0536 71.9155 33.0746 73.4879C33.5313 74.191 34.3888 74.5202 35.1986 74.3032C37.0095 73.818 38.3834 75.9335 37.2035 77.3905C36.6759 78.0421 36.6278 78.9593 37.0845 79.6625C38.1056 81.2348 36.5181 83.1951 34.7678 82.5233C33.9851 82.2228 33.0979 82.4605 32.5703 83.1121C31.3904 84.5691 29.0355 83.6651 29.1336 81.7929C29.1775 80.9556 28.6772 80.1853 27.8945 79.8848C26.1442 79.213 26.2762 76.6939 28.0871 76.2087C28.897 75.9917 29.475 75.2779 29.5189 74.4406Z" fill="#FFBE21"/>
<path id="Star 6" d="M17.1831 102.154C17.0977 101.254 18.213 100.771 18.8106 101.448C19.0779 101.751 19.5099 101.848 19.8805 101.687C20.7094 101.328 21.5136 102.239 21.054 103.017C20.8485 103.365 20.8904 103.806 21.1576 104.108C21.7553 104.786 21.137 105.832 20.2553 105.636C19.8611 105.548 19.455 105.723 19.2495 106.071C18.7899 106.849 17.6037 106.584 17.5183 105.685C17.4801 105.283 17.1874 104.951 16.7931 104.863C15.9114 104.666 15.7966 103.456 16.6255 103.097C16.9961 102.937 17.2213 102.556 17.1831 102.154Z" fill="#FF009B"/>
<path id="Star 24" d="M78.4959 165.587C77.7308 165.107 78.0272 163.928 78.9284 163.867C79.3315 163.84 79.671 163.556 79.7695 163.164C79.9898 162.288 81.2024 162.206 81.5392 163.044C81.6898 163.419 82.0646 163.654 82.4676 163.627C83.3689 163.565 83.822 164.693 83.1288 165.273C82.8189 165.532 82.7109 165.961 82.8615 166.336C83.1983 167.174 82.2657 167.953 81.5005 167.473C81.1584 167.258 80.7168 167.288 80.4069 167.547C79.7137 168.127 78.6843 167.481 78.9045 166.605C79.003 166.213 78.8381 165.802 78.4959 165.587Z" fill="#FF009B"/>
<path id="Star 57" d="M140.903 158.968C140.138 158.488 140.434 157.309 141.336 157.248C141.739 157.221 142.078 156.937 142.177 156.545C142.397 155.669 143.61 155.587 143.946 156.425C144.097 156.8 144.472 157.035 144.875 157.008C145.776 156.946 146.229 158.074 145.536 158.653C145.226 158.912 145.118 159.342 145.269 159.717C145.605 160.555 144.673 161.334 143.908 160.854C143.566 160.639 143.124 160.669 142.814 160.928C142.121 161.508 141.091 160.861 141.312 159.985C141.41 159.594 141.245 159.183 140.903 158.968Z" fill="#FF009B"/>
<path id="Star 37" d="M132.837 51.3734C132.072 50.8932 132.368 49.7145 133.269 49.6533C133.672 49.6259 134.012 49.3421 134.11 48.9503C134.331 48.0742 135.543 47.9919 135.88 48.8301C136.031 49.2049 136.405 49.4402 136.808 49.4128C137.71 49.3516 138.163 50.4794 137.47 51.0587C137.16 51.3177 137.052 51.7469 137.202 52.1218C137.539 52.96 136.606 53.7394 135.841 53.2592C135.499 53.0445 135.058 53.0745 134.748 53.3335C134.055 53.9128 133.025 53.2667 133.245 52.3906C133.344 51.9989 133.179 51.5882 132.837 51.3734Z" fill="#FF009B"/>
<path id="Star 44" d="M39.0867 136.874C38.3216 136.394 38.618 135.215 39.5192 135.154C39.9223 135.127 40.2619 134.843 40.3604 134.451C40.5806 133.575 41.7932 133.493 42.13 134.331C42.2806 134.706 42.6554 134.941 43.0585 134.914C43.9597 134.853 44.4128 135.98 43.7197 136.56C43.4097 136.819 43.3018 137.248 43.4524 137.623C43.7891 138.461 42.8565 139.24 42.0914 138.76C41.7492 138.545 41.3077 138.575 40.9977 138.835C40.3045 139.414 39.2751 138.768 39.4954 137.892C39.5939 137.5 39.4289 137.089 39.0867 136.874Z" fill="#FF009B"/>
<path id="Star 18" d="M170.082 30.3547C169.997 29.4554 171.112 28.9723 171.71 29.6496C171.977 29.9525 172.409 30.0489 172.779 29.8883C173.608 29.5292 174.412 30.4406 173.953 31.2183C173.747 31.5661 173.789 32.0067 174.057 32.3096C174.654 32.987 174.036 34.0334 173.154 33.8367C172.76 33.7487 172.354 33.9246 172.148 34.2725C171.689 35.0502 170.503 34.7855 170.417 33.8862C170.379 33.484 170.086 33.1522 169.692 33.0642C168.81 32.8675 168.695 31.6575 169.524 31.2984C169.895 31.1379 170.12 30.7569 170.082 30.3547Z" fill="#FFBE21"/>
<path id="Star 45" d="M80.5669 101.633C80.4815 100.734 81.5968 100.251 82.1944 100.928C82.4617 101.231 82.8936 101.327 83.2643 101.167C84.0932 100.808 84.8974 101.719 84.4378 102.497C84.2323 102.844 84.2741 103.285 84.5414 103.588C85.1391 104.265 84.5208 105.312 83.6391 105.115C83.2448 105.027 82.8388 105.203 82.6333 105.551C82.1737 106.328 80.9875 106.064 80.9021 105.165C80.8639 104.762 80.5711 104.431 80.1769 104.343C79.2952 104.146 79.1804 102.936 80.0092 102.577C80.3799 102.416 80.6051 102.035 80.5669 101.633Z" fill="#FFBE21"/>
<path id="Star 29" d="M116.783 77.9875C116.697 77.0882 117.813 76.6051 118.41 77.2824C118.678 77.5854 119.109 77.6817 119.48 77.5211C120.309 77.1621 121.113 78.0734 120.654 78.8512C120.448 79.199 120.49 79.6395 120.757 79.9425C121.355 80.6198 120.737 81.6662 119.855 81.4695C119.461 81.3815 119.055 81.5575 118.849 81.9053C118.39 82.683 117.203 82.4183 117.118 81.519C117.08 81.1169 116.787 80.785 116.393 80.697C115.511 80.5003 115.396 79.2903 116.225 78.9313C116.596 78.7707 116.821 78.3897 116.783 77.9875Z" fill="#FFBE21"/>
<path id="Star 19" d="M174.586 113.677C174.501 112.778 175.616 112.295 176.213 112.972C176.481 113.275 176.913 113.371 177.283 113.211C178.112 112.852 178.916 113.763 178.457 114.541C178.251 114.888 178.293 115.329 178.56 115.632C179.158 116.309 178.54 117.356 177.658 117.159C177.264 117.071 176.858 117.247 176.652 117.595C176.193 118.372 175.007 118.108 174.921 117.208C174.883 116.806 174.59 116.474 174.196 116.386C173.314 116.19 173.199 114.98 174.028 114.621C174.399 114.46 174.624 114.079 174.586 113.677Z" fill="#FF009B"/>
<path id="Star 46" d="M98.7671 157.368C98.6817 156.469 99.797 155.986 100.395 156.663C100.662 156.966 101.094 157.063 101.465 156.902C102.293 156.543 103.098 157.454 102.638 158.232C102.433 158.58 102.474 159.02 102.742 159.323C103.339 160.001 102.721 161.047 101.839 160.85C101.445 160.762 101.039 160.938 100.833 161.286C100.374 162.064 99.1877 161.799 99.1023 160.9C99.0641 160.498 98.7713 160.166 98.377 160.078C97.4954 159.881 97.3805 158.671 98.2094 158.312C98.5801 158.152 98.8053 157.771 98.7671 157.368Z" fill="#FF009B"/>
<path id="Star 58" d="M163.511 165.471C163.425 164.572 164.541 164.088 165.138 164.766C165.406 165.069 165.837 165.165 166.208 165.005C167.037 164.645 167.841 165.557 167.382 166.335C167.176 166.682 167.218 167.123 167.485 167.426C168.083 168.103 167.465 169.15 166.583 168.953C166.189 168.865 165.783 169.041 165.577 169.389C165.118 170.166 163.931 169.902 163.846 169.002C163.808 168.6 163.515 168.268 163.121 168.18C162.239 167.984 162.124 166.774 162.953 166.415C163.324 166.254 163.549 165.873 163.511 165.471Z" fill="#FF009B"/>
<path id="Star 33" d="M89.1968 53.216C89.1114 52.3167 90.2267 51.8336 90.8243 52.5109C91.0916 52.8139 91.5235 52.9102 91.8942 52.7497C92.7231 52.3906 93.5272 53.302 93.0677 54.0797C92.8622 54.4275 92.904 54.868 93.1713 55.171C93.7689 55.8483 93.1507 56.8947 92.269 56.698C91.8747 56.6101 91.4686 56.786 91.2631 57.1338C90.8036 57.9115 89.6174 57.6468 89.532 56.7475C89.4938 56.3454 89.201 56.0135 88.8067 55.9255C87.9251 55.7288 87.8102 54.5189 88.6391 54.1598C89.0098 53.9992 89.2349 53.6182 89.1968 53.216Z" fill="#FF009B"/>
<path id="Star 47" d="M101.019 88.6838C100.934 87.7845 102.049 87.3014 102.647 87.9787C102.914 88.2816 103.346 88.378 103.716 88.2174C104.545 87.8584 105.35 88.7697 104.89 89.5474C104.684 89.8952 104.726 90.3358 104.994 90.6387C105.591 91.3161 104.973 92.3625 104.091 92.1658C103.697 92.0778 103.291 92.2537 103.085 92.6016C102.626 93.3793 101.44 93.1146 101.354 92.2153C101.316 91.8131 101.023 91.4813 100.629 91.3933C99.7474 91.1966 99.6325 89.9866 100.461 89.6276C100.832 89.467 101.057 89.086 101.019 88.6838Z" fill="#FF009B"/>
<path id="Star 25" d="M35.139 181.181C34.3738 180.701 34.6702 179.522 35.5715 179.461C35.9745 179.434 36.3141 179.15 36.4126 178.758C36.6329 177.882 37.8455 177.799 38.1822 178.638C38.3328 179.013 38.7077 179.248 39.1107 179.22C40.012 179.159 40.465 180.287 39.7719 180.866C39.4619 181.125 39.354 181.555 39.5046 181.929C39.8413 182.768 38.9087 183.547 38.1436 183.067C37.8014 182.852 37.3599 182.882 37.0499 183.141C36.3568 183.72 35.3273 183.074 35.5476 182.198C35.6461 181.806 35.4811 181.396 35.139 181.181Z" fill="#8743FF"/>
<path id="Star 59" d="M113.579 161.698C112.814 161.217 113.11 160.039 114.011 159.977C114.414 159.95 114.754 159.666 114.853 159.275C115.073 158.398 116.285 158.316 116.622 159.154C116.773 159.529 117.148 159.764 117.551 159.737C118.452 159.676 118.905 160.804 118.212 161.383C117.902 161.642 117.794 162.071 117.945 162.446C118.281 163.284 117.349 164.064 116.584 163.583C116.241 163.369 115.8 163.399 115.49 163.658C114.797 164.237 113.767 163.591 113.988 162.715C114.086 162.323 113.921 161.912 113.579 161.698Z" fill="#8743FF"/>
<path id="Star 38" d="M105.512 54.1029C104.747 53.6227 105.043 52.444 105.945 52.3828C106.348 52.3554 106.687 52.0716 106.786 51.6798C107.006 50.8037 108.219 50.7214 108.555 51.5596C108.706 51.9344 109.081 52.1697 109.484 52.1423C110.385 52.0811 110.838 53.2089 110.145 53.7882C109.835 54.0472 109.727 54.4764 109.878 54.8513C110.214 55.6895 109.282 56.4689 108.517 55.9887C108.174 55.774 107.733 55.804 107.423 56.063C106.73 56.6423 105.7 55.9962 105.921 55.1201C106.019 54.7283 105.854 54.3177 105.512 54.1029Z" fill="#8743FF"/>
<path id="Star 8" d="M44.5356 37.1105C44.4503 36.2113 45.5655 35.7281 46.1632 36.4055C46.4305 36.7084 46.8624 36.8048 47.2331 36.6442C48.062 36.2851 48.8661 37.1965 48.4066 37.9742C48.2011 38.322 48.2429 38.7626 48.5102 39.0655C49.1078 39.7429 48.4895 40.7893 47.6079 40.5926C47.2136 40.5046 46.8075 40.6805 46.602 41.0283C46.1425 41.806 44.9562 41.5414 44.8709 40.6421C44.8327 40.2399 44.5399 39.908 44.1456 39.8201C43.264 39.6234 43.1491 38.4134 43.978 38.0543C44.3487 37.8937 44.5738 37.5127 44.5356 37.1105Z" fill="#FFBE21"/>
<path id="Star 65" d="M44.7207 88.342C44.6353 87.4427 45.7506 86.9596 46.3482 87.6369C46.6155 87.9398 47.0475 88.0362 47.4181 87.8756C48.247 87.5166 49.0512 88.4279 48.5916 89.2056C48.3861 89.5534 48.428 89.994 48.6952 90.2969C49.2929 90.9743 48.6746 92.0207 47.7929 91.824C47.3987 91.736 46.9926 91.912 46.7871 92.2598C46.3275 93.0375 45.1413 92.7728 45.0559 91.8735C45.0177 91.4713 44.7249 91.1395 44.3307 91.0515C43.449 90.8548 43.3342 89.6448 44.1631 89.2858C44.5337 89.1252 44.7589 88.7442 44.7207 88.342Z" fill="#FFBE21"/>
<path id="Star 9" d="M7.3789 37.1105C7.29353 36.2113 8.4088 35.7281 9.00645 36.4055C9.27372 36.7084 9.70566 36.8048 10.0763 36.6442C10.9052 36.2851 11.7094 37.1965 11.2498 37.9742C11.0443 38.322 11.0862 38.7626 11.3534 39.0655C11.9511 39.7429 11.3328 40.7893 10.4511 40.5926C10.0569 40.5046 9.65077 40.6805 9.44526 41.0283C8.98574 41.806 7.79949 41.5414 7.71412 40.6421C7.67595 40.2399 7.38315 39.908 6.98887 39.8201C6.10722 39.6234 5.99236 38.4134 6.82125 38.0543C7.19194 37.8937 7.41707 37.5127 7.3789 37.1105Z" fill="#FFBE21"/>
<path id="Star 66" d="M7.56347 88.342C7.47811 87.4427 8.59337 86.9596 9.19102 87.6369C9.45829 87.9398 9.89023 88.0362 10.2609 87.8756C11.0898 87.5166 11.8939 88.4279 11.4344 89.2056C11.2289 89.5534 11.2707 89.994 11.538 90.2969C12.1356 90.9743 11.5174 92.0207 10.6357 91.824C10.2414 91.736 9.83534 91.912 9.62983 92.2598C9.17031 93.0375 7.98406 92.7728 7.89869 91.8735C7.86052 91.4713 7.56772 91.1395 7.17344 91.0515C6.29179 90.8548 6.17693 89.6448 7.00582 89.2858C7.37651 89.1252 7.60164 88.7442 7.56347 88.342Z" fill="#FFBE21"/>
<path id="Star 16" d="M14.1348 64.134C14.0494 63.2347 15.1647 62.7516 15.7623 63.4289C16.0296 63.7318 16.4615 63.8282 16.8322 63.6676C17.6611 63.3085 18.4652 64.2199 18.0057 64.9976C17.8002 65.3454 17.842 65.786 18.1093 66.0889C18.7069 66.7663 18.0887 67.8127 17.207 67.616C16.8127 67.528 16.4066 67.7039 16.2011 68.0517C15.7416 68.8295 14.5553 68.5648 14.47 67.6655C14.4318 67.2633 14.139 66.9315 13.7447 66.8435C12.8631 66.6468 12.7482 65.4368 13.5771 65.0777C13.9478 64.9172 14.1729 64.5361 14.1348 64.134Z" fill="#8743FF"/>
<path id="Star 67" d="M14.3193 115.365C14.234 114.466 15.3492 113.983 15.9469 114.66C16.2142 114.963 16.6461 115.06 17.0168 114.899C17.8457 114.54 18.6498 115.451 18.1903 116.229C17.9848 116.577 18.0266 117.017 18.2939 117.32C18.8915 117.998 18.2732 119.044 17.3916 118.847C16.9973 118.759 16.5912 118.935 16.3857 119.283C15.9262 120.061 14.7399 119.796 14.6546 118.897C14.6164 118.495 14.3236 118.163 13.9293 118.075C13.0476 117.878 12.9328 116.668 13.7617 116.309C14.1324 116.149 14.3575 115.768 14.3193 115.365Z" fill="#8743FF"/>
<path id="Star 26" d="M30.4573 157.705C29.6922 157.225 29.9886 156.047 30.8898 155.985C31.2929 155.958 31.6325 155.674 31.731 155.282C31.9512 154.406 33.1639 154.324 33.5006 155.162C33.6512 155.537 34.026 155.772 34.4291 155.745C35.3303 155.684 35.7834 156.811 35.0903 157.391C34.7803 157.65 34.6724 158.079 34.823 158.454C35.1597 159.292 34.2271 160.071 33.462 159.591C33.1198 159.377 32.6783 159.407 32.3683 159.666C31.6751 160.245 30.6457 159.599 30.866 158.723C30.9645 158.331 30.7995 157.92 30.4573 157.705Z" fill="#8743FF"/>
<path id="Star 60" d="M108.897 138.222C108.132 137.742 108.428 136.563 109.329 136.502C109.732 136.475 110.072 136.191 110.17 135.799C110.391 134.923 111.603 134.84 111.94 135.679C112.091 136.054 112.465 136.289 112.869 136.261C113.77 136.2 114.223 137.328 113.53 137.907C113.22 138.166 113.112 138.596 113.262 138.97C113.599 139.809 112.667 140.588 111.901 140.108C111.559 139.893 111.118 139.923 110.808 140.182C110.115 140.761 109.085 140.115 109.305 139.239C109.404 138.847 109.239 138.437 108.897 138.222Z" fill="#8743FF"/>
<path id="Star 39" d="M100.83 30.6264C100.065 30.1462 100.362 28.9674 101.263 28.9062C101.666 28.8788 102.006 28.595 102.104 28.2032C102.324 27.3272 103.537 27.2448 103.874 28.083C104.024 28.4579 104.399 28.6931 104.802 28.6658C105.703 28.6045 106.156 29.7323 105.463 30.3116C105.153 30.5707 105.045 30.9999 105.196 31.3747C105.533 32.213 104.6 32.9924 103.835 32.5122C103.493 32.2974 103.051 32.3274 102.741 32.5865C102.048 33.1657 101.019 32.5196 101.239 31.6436C101.338 31.2518 101.173 30.8411 100.83 30.6264Z" fill="#8743FF"/>
<path id="Star 17" d="M150.377 24.1623C150.292 23.263 151.407 22.7799 152.005 23.4572C152.272 23.7602 152.704 23.8565 153.075 23.6959C153.904 23.3369 154.708 24.2482 154.248 25.026C154.043 25.3738 154.085 25.8143 154.352 26.1173C154.95 26.7946 154.331 27.841 153.45 27.6443C153.055 27.5563 152.649 27.7323 152.444 28.0801C151.984 28.8578 150.798 28.5931 150.713 27.6938C150.674 27.2917 150.382 26.9598 149.987 26.8718C149.106 26.6751 148.991 25.4651 149.82 25.1061C150.19 24.9455 150.416 24.5645 150.377 24.1623Z" fill="#8743FF"/>
<path id="Star 48" d="M66.1142 79.1135C66.0289 78.2142 67.1442 77.731 67.7418 78.4084C68.0091 78.7113 68.441 78.8077 68.8117 78.6471C69.6406 78.288 70.4447 79.1994 69.9852 79.9771C69.7797 80.3249 69.8215 80.7655 70.0888 81.0684C70.6864 81.7458 70.0681 82.7922 69.1865 82.5955C68.7922 82.5075 68.3861 82.6834 68.1806 83.0312C67.7211 83.809 66.5348 83.5443 66.4495 82.645C66.4113 82.2428 66.1185 81.911 65.7242 81.823C64.8426 81.6263 64.7277 80.4163 65.5566 80.0572C65.9273 79.8967 66.1524 79.5156 66.1142 79.1135Z" fill="#8743FF"/>
<path id="Star 30" d="M67.8032 50.4006C67.7179 49.5013 68.8331 49.0182 69.4308 49.6955C69.698 49.9984 70.13 50.0948 70.5007 49.9342C71.3296 49.5751 72.1337 50.4865 71.6742 51.2642C71.4687 51.612 71.5105 52.0526 71.7777 52.3555C72.3754 53.0329 71.7571 54.0793 70.8755 53.8826C70.4812 53.7946 70.0751 53.9705 69.8696 54.3183C69.4101 55.0961 68.2238 54.8314 68.1384 53.9321C68.1003 53.5299 67.8075 53.1981 67.4132 53.1101C66.5315 52.9134 66.4167 51.7034 67.2456 51.3443C67.6163 51.1838 67.8414 50.8027 67.8032 50.4006Z" fill="#8743FF"/>
<path id="Star 68" d="M67.9878 101.633C67.9024 100.734 69.0177 100.251 69.6153 100.928C69.8826 101.231 70.3145 101.327 70.6852 101.167C71.5141 100.808 72.3183 101.719 71.8587 102.497C71.6532 102.844 71.695 103.285 71.9623 103.588C72.56 104.265 71.9417 105.312 71.06 105.115C70.6657 105.027 70.2597 105.203 70.0541 105.551C69.5946 106.328 68.4084 106.064 68.323 105.165C68.2848 104.762 67.992 104.431 67.5978 104.343C66.7161 104.146 66.6012 102.936 67.4301 102.577C67.8008 102.416 68.026 102.035 67.9878 101.633Z" fill="#8743FF"/>
<path id="Star 10" d="M133.488 39.3625C133.402 38.4632 134.518 37.9801 135.115 38.6574C135.383 38.9604 135.815 39.0567 136.185 38.8961C137.014 38.5371 137.818 39.4484 137.359 40.2262C137.153 40.574 137.195 41.0145 137.462 41.3175C138.06 41.9948 137.442 43.0412 136.56 42.8445C136.166 42.7565 135.76 42.9325 135.554 43.2803C135.095 44.058 133.908 43.7933 133.823 42.894C133.785 42.4919 133.492 42.16 133.098 42.072C132.216 41.8753 132.101 40.6653 132.93 40.3063C133.301 40.1457 133.526 39.7647 133.488 39.3625Z" fill="#FFBE21"/>
<path id="Star 49" d="M43.9726 110.641C43.8873 109.742 45.0025 109.258 45.6002 109.936C45.8675 110.239 46.2994 110.335 46.6701 110.174C47.499 109.815 48.3031 110.727 47.8436 111.504C47.6381 111.852 47.6799 112.293 47.9472 112.596C48.5448 113.273 47.9265 114.32 47.0449 114.123C46.6506 114.035 46.2445 114.211 46.039 114.559C45.5795 115.336 44.3932 115.072 44.3079 114.172C44.2697 113.77 43.9769 113.438 43.5826 113.35C42.701 113.154 42.5861 111.944 43.415 111.585C43.7857 111.424 44.0108 111.043 43.9726 110.641Z" fill="#FFBE21"/>
<path id="Star 31" d="M50.9136 65.6017C50.8282 64.7025 51.9435 64.2193 52.5411 64.8967C52.8084 65.1996 53.2403 65.296 53.611 65.1354C54.4399 64.7763 55.244 65.6877 54.7845 66.4654C54.579 66.8132 54.6208 67.2538 54.8881 67.5567C55.4857 68.2341 54.8675 69.2805 53.9858 69.0838C53.5915 68.9958 53.1854 69.1717 52.9799 69.5195C52.5204 70.2972 51.3342 70.0326 51.2488 69.1333C51.2106 68.7311 50.9178 68.3993 50.5235 68.3113C49.6419 68.1146 49.527 66.9046 50.3559 66.5455C50.7266 66.3849 50.9517 66.0039 50.9136 65.6017Z" fill="#FFBE21"/>
<path id="Star 69" d="M107.212 105.573C107.127 104.674 108.242 104.191 108.839 104.868C109.107 105.171 109.539 105.268 109.909 105.107C110.738 104.748 111.542 105.659 111.083 106.437C110.877 106.785 110.919 107.225 111.186 107.528C111.784 108.206 111.166 109.252 110.284 109.055C109.89 108.967 109.484 109.143 109.278 109.491C108.819 110.269 107.632 110.004 107.547 109.105C107.509 108.703 107.216 108.371 106.822 108.283C105.94 108.086 105.825 106.876 106.654 106.517C107.025 106.357 107.25 105.976 107.212 105.573Z" fill="#FFBE21"/>
<path id="Star 11" d="M169.704 76.298C169.618 75.3988 170.734 74.9156 171.331 75.593C171.598 75.8959 172.03 75.9923 172.401 75.8317C173.23 75.4726 174.034 76.384 173.575 77.1617C173.369 77.5095 173.411 77.9501 173.678 78.253C174.276 78.9304 173.657 79.9768 172.776 79.7801C172.382 79.6921 171.975 79.868 171.77 80.2158C171.31 80.9935 170.124 80.7289 170.039 79.8296C170.001 79.4274 169.708 79.0955 169.314 79.0076C168.432 78.8109 168.317 77.6009 169.146 77.2418C169.517 77.0812 169.742 76.7002 169.704 76.298Z" fill="#FFBE21"/>
<path id="Star 50" d="M43.9726 175.946C43.8873 175.047 45.0025 174.564 45.6002 175.241C45.8675 175.544 46.2994 175.641 46.6701 175.48C47.499 175.121 48.3031 176.032 47.8436 176.81C47.6381 177.158 47.6799 177.599 47.9472 177.901C48.5448 178.579 47.9265 179.625 47.0449 179.428C46.6506 179.341 46.2445 179.516 46.039 179.864C45.5795 180.642 44.3932 180.377 44.3079 179.478C44.2697 179.076 43.9769 178.744 43.5826 178.656C42.701 178.459 42.5861 177.249 43.415 176.89C43.7857 176.73 44.0108 176.349 43.9726 175.946Z" fill="#FFBE21"/>
<path id="Star 61" d="M122.413 156.463C122.327 155.564 123.442 155.081 124.04 155.758C124.307 156.061 124.739 156.157 125.11 155.997C125.939 155.638 126.743 156.549 126.284 157.327C126.078 157.675 126.12 158.115 126.387 158.418C126.985 159.095 126.366 160.142 125.485 159.945C125.091 159.857 124.684 160.033 124.479 160.381C124.019 161.159 122.833 160.894 122.748 159.995C122.71 159.592 122.417 159.261 122.023 159.173C121.141 158.976 121.026 157.766 121.855 157.407C122.226 157.246 122.451 156.865 122.413 156.463Z" fill="#FFBE21"/>
<path id="Star 34" d="M114.531 62.2238C114.445 61.3245 115.561 60.8414 116.158 61.5188C116.426 61.8217 116.858 61.9181 117.228 61.7575C118.057 61.3984 118.861 62.3098 118.402 63.0875C118.196 63.4353 118.238 63.8759 118.505 64.1788C119.103 64.8561 118.485 65.9025 117.603 65.7058C117.209 65.6179 116.803 65.7938 116.597 66.1416C116.138 66.9193 114.951 66.6546 114.866 65.7553C114.828 65.3532 114.535 65.0213 114.141 64.9334C113.259 64.7366 113.144 63.5267 113.973 63.1676C114.344 63.007 114.569 62.626 114.531 62.2238Z" fill="#FFBE21"/>
<path id="Star 51" d="M25.0161 133.501C24.9307 132.602 26.046 132.119 26.6437 132.796C26.9109 133.099 27.3429 133.195 27.7136 133.035C28.5424 132.676 29.3466 133.587 28.887 134.365C28.6815 134.713 28.7234 135.153 28.9906 135.456C29.5883 136.133 28.97 137.18 28.0883 136.983C27.6941 136.895 27.288 137.071 27.0825 137.419C26.6229 138.197 25.4367 137.932 25.3513 137.033C25.3132 136.631 25.0204 136.299 24.6261 136.211C23.7444 136.014 23.6296 134.804 24.4585 134.445C24.8292 134.284 25.0543 133.903 25.0161 133.501Z" fill="#FFBE21"/>
<path id="Star 12" d="M131.42 108.951C131.335 108.052 132.45 107.569 133.048 108.246C133.315 108.549 133.747 108.646 134.118 108.485C134.947 108.126 135.751 109.037 135.291 109.815C135.086 110.163 135.128 110.603 135.395 110.906C135.993 111.584 135.374 112.63 134.493 112.433C134.098 112.345 133.692 112.521 133.487 112.869C133.027 113.647 131.841 113.382 131.756 112.483C131.717 112.081 131.425 111.749 131.03 111.661C130.149 111.464 130.034 110.254 130.863 109.895C131.233 109.735 131.459 109.354 131.42 108.951Z" fill="#8743FF"/>
<path id="Star 52" d="M63.2993 147.235C63.2139 146.335 64.3292 145.852 64.9269 146.53C65.1941 146.832 65.6261 146.929 65.9968 146.768C66.8256 146.409 67.6298 147.321 67.1703 148.098C66.9647 148.446 67.0066 148.887 67.2738 149.19C67.8715 149.867 67.2532 150.913 66.3716 150.717C65.9773 150.629 65.5712 150.805 65.3657 151.152C64.9061 151.93 63.7199 151.665 63.6345 150.766C63.5964 150.364 63.3036 150.032 62.9093 149.944C62.0276 149.747 61.9128 148.537 62.7417 148.178C63.1124 148.018 63.3375 147.637 63.2993 147.235Z" fill="#8743FF"/>
<path id="Star 62" d="M147.184 156.463C147.099 155.564 148.214 155.081 148.812 155.758C149.079 156.061 149.511 156.157 149.882 155.997C150.71 155.638 151.515 156.549 151.055 157.327C150.85 157.675 150.891 158.115 151.159 158.418C151.756 159.095 151.138 160.142 150.256 159.945C149.862 159.857 149.456 160.033 149.25 160.381C148.791 161.159 147.605 160.894 147.519 159.995C147.481 159.592 147.188 159.261 146.794 159.173C145.912 158.976 145.798 157.766 146.626 157.407C146.997 157.246 147.222 156.865 147.184 156.463Z" fill="#8743FF"/>
<path id="Star 35" d="M139.302 62.2238C139.217 61.3245 140.332 60.8414 140.93 61.5188C141.197 61.8217 141.629 61.9181 142 61.7575C142.829 61.3984 143.633 62.3098 143.173 63.0875C142.968 63.4353 143.009 63.8759 143.277 64.1788C143.874 64.8561 143.256 65.9025 142.374 65.7058C141.98 65.6179 141.574 65.7938 141.369 66.1416C140.909 66.9193 139.723 66.6546 139.637 65.7553C139.599 65.3532 139.306 65.0213 138.912 64.9334C138.031 64.7366 137.916 63.5267 138.745 63.1676C139.115 63.007 139.34 62.626 139.302 62.2238Z" fill="#8743FF"/>
<path id="Star 53" d="M62.1733 124.715C62.088 123.816 63.2032 123.333 63.8009 124.01C64.0682 124.313 64.5001 124.409 64.8708 124.249C65.6997 123.89 66.5038 124.801 66.0443 125.579C65.8388 125.926 65.8806 126.367 66.1479 126.67C66.7455 127.347 66.1272 128.394 65.2456 128.197C64.8513 128.109 64.4452 128.285 64.2397 128.633C63.7802 129.411 62.5939 129.146 62.5086 128.247C62.4704 127.844 62.1776 127.513 61.7833 127.425C60.9017 127.228 60.7868 126.018 61.6157 125.659C61.9864 125.498 62.2115 125.117 62.1733 124.715Z" fill="#8743FF"/>
<path id="Star 27" d="M120.539 175.946C120.454 175.047 121.569 174.564 122.167 175.241C122.434 175.544 122.866 175.641 123.237 175.48C124.065 175.121 124.87 176.032 124.41 176.81C124.204 177.158 124.246 177.599 124.514 177.901C125.111 178.579 124.493 179.625 123.611 179.428C123.217 179.341 122.811 179.516 122.605 179.864C122.146 180.642 120.96 180.377 120.874 179.478C120.836 179.076 120.543 178.744 120.149 178.656C119.267 178.459 119.153 177.249 119.981 176.89C120.352 176.73 120.577 176.349 120.539 175.946Z" fill="#8743FF"/>
<path id="Star 40" d="M190.913 48.8684C190.827 47.9691 191.942 47.4859 192.54 48.1633C192.807 48.4662 193.239 48.5626 193.61 48.402C194.439 48.0429 195.243 48.9543 194.784 49.732C194.578 50.0798 194.62 50.5204 194.887 50.8233C195.485 51.5007 194.866 52.5471 193.985 52.3504C193.591 52.2624 193.184 52.4383 192.979 52.7861C192.519 53.5638 191.333 53.2992 191.248 52.3999C191.21 51.9977 190.917 51.6659 190.523 51.5779C189.641 51.3812 189.526 50.1712 190.355 49.8121C190.726 49.6515 190.951 49.2705 190.913 48.8684Z" fill="#8743FF"/>
<path id="Star 54" d="M101.397 120.146C101.312 119.246 102.427 118.763 103.025 119.441C103.292 119.744 103.724 119.84 104.095 119.679C104.924 119.32 105.728 120.232 105.268 121.009C105.063 121.357 105.105 121.798 105.372 122.101C105.97 122.778 105.351 123.824 104.47 123.628C104.075 123.54 103.669 123.716 103.464 124.063C103.004 124.841 101.818 124.577 101.733 123.677C101.695 123.275 101.402 122.943 101.007 122.855C100.126 122.659 100.011 121.449 100.84 121.089C101.21 120.929 101.436 120.548 101.397 120.146Z" fill="#8743FF"/>
</g>
</svg>
