<svg width="23" height="24" viewBox="0 0 23 24" fill="none" xmlns="http://www.w3.org/2000/svg">
<g id="Flechas/Right">
<path id="Vector" d="M17.1743 16L6.00569 16C5.80709 16.0011 5.61265 15.9431 5.44715 15.8333C5.28165 15.7235 5.15259 15.567 5.07644 15.3835C5.00028 15.2001 4.98047 14.9982 5.01953 14.8034C5.0586 14.6087 5.15477 14.43 5.29578 14.2902L10.8851 8.71076C11.0724 8.52453 11.3258 8.42 11.59 8.42C11.8542 8.42 12.1076 8.52453 12.2949 8.71076L17.8842 14.2902C18.0252 14.43 18.1214 14.6087 18.1605 14.8034C18.1995 14.9982 18.1797 15.2001 18.1036 15.3835C18.0274 15.567 17.8984 15.7235 17.7329 15.8333C17.5674 15.9431 17.3729 16.0011 17.1743 16Z" fill="#004179"/>
</g>
</svg>
