<svg width="98" height="92" viewBox="0 0 98 92" fill="none" xmlns="http://www.w3.org/2000/svg">
<g clip-path="url(#clip0_263_4590)">
<path d="M54.7734 45.9998L96.8032 6.54327C97.547 5.8203 97.9586 4.85199 97.9493 3.8469C97.94 2.84181 97.5105 1.88036 96.7534 1.16963C95.9964 0.458901 94.9722 0.0557539 93.9016 0.0470199C92.8309 0.038286 91.7995 0.424665 91.0294 1.12294L48.9996 40.5794L6.96987 1.12294C6.19974 0.424665 5.16828 0.038286 4.09764 0.0470199C3.02701 0.0557539 2.00286 0.458901 1.24577 1.16963C0.488691 1.88036 0.0592508 2.84181 0.0499473 3.8469C0.0406438 4.85199 0.452221 5.8203 1.19603 6.54327L43.2258 45.9998L1.19603 85.4563C0.430526 86.1751 0.000488281 87.15 0.000488281 88.1664C0.000488281 89.1829 0.430526 90.1577 1.19603 90.8766C1.96177 91.5952 3.0002 91.9989 4.08295 91.9989C5.1657 91.9989 6.20413 91.5952 6.96987 90.8766L48.9996 51.4201L91.0294 90.8766C91.7951 91.5952 92.8335 91.9989 93.9163 91.9989C94.999 91.9989 96.0375 91.5952 96.8032 90.8766C97.5687 90.1577 97.9987 89.1829 97.9987 88.1664C97.9987 87.15 97.5687 86.1751 96.8032 85.4563L54.7734 45.9998Z" fill="#374957"/>
</g>
<defs>
<clipPath id="clip0_263_4590">
<rect width="98" height="92" fill="white"/>
</clipPath>
</defs>
</svg>